<svg height="35" viewBox="0 0 110 35" width="110" xmlns="http://www.w3.org/2000/svg" xmlns:xlink="http://www.w3.org/1999/xlink"><mask id="a" fill="#fff"><path d="m.023.144h3.694v3.618h-3.694z" fill="none"/></mask><g fill="none" fill-rule="evenodd"><path d="m69.918 26.606c-.876-1.142-1.447-2.741-1.447-4.455 0-1.18.228-1.79.647-1.79.8 0 .914 1.904.914 4.494 0 .57-.038 1.142-.114 1.751zm-13.937 0c-.876-1.142-1.447-2.741-1.447-4.455 0-1.18.228-1.79.647-1.79.8 0 .914 1.904.914 4.494 0 .57-.038 1.142-.114 1.751zm-13.594-16.755c0-.609.153-1.523.571-1.523.61 0 1.029 1.142 1.029 3.656 0 2.094-.8 7.12-1.6 8.72zm61.344 15.422c-.38 0-.762.343-.914 1.143-.343 1.675-1.028 4.112-2.55 4.112-.915 0-1.296-.914-1.296-1.75v-6.285c0-.914-.8-1.675-2.056-1.675-.533 0-.99.266-.99.648 0 .266.152.495.152 1.218v5.864c-.419 1.066-1.104 1.98-2.132 1.98-1.333 0-2.17-1.142-2.17-3.122 0-.066.006-.126.007-.191l.03-.114c.039-.152.039-.228.039-.266 0-.1-.017-.204-.042-.306.342-4.868 3.514-7.082 6.248-7.082.381 0 .762.077 1.104.077.381 0 .496-.229.496-.877 0-.99-.724-1.598-1.752-1.598-4.646 0-9.063 3.884-9.063 10.243 0 .487.04.954.11 1.402-.416 1.015-1.017 1.834-1.899 1.834-.99 0-.99-1.409-.99-1.75v-7.884c0-1.752-.61-3.845-3.161-3.845-1.866 0-3.237 1.636-4.265 3.77v-1.715c0-.914-.8-1.675-2.056-1.675-.533 0-.99.266-.99.648 0 .266.152.495.152 1.218v6.4c-.229 1.484-1.105 2.739-2.741 2.739-.267 0-.495 0-.761-.076.38-1.295.532-2.704.532-4.113 0-3.694-1.446-6.397-3.236-6.397-2.056 0-3.085 2.056-3.085 4.455 0 2.742.953 5.255 2.742 6.778-.495.876-1.18 1.447-2.247 1.447-1.484 0-2.741-1.599-2.741-4.798 0-3.77 1.142-5.179 1.751-6.093.99-.646.229-2.665-.761-2.665-.838 0-3.884 3.39-3.884 8.987 0 .369.021.73.054 1.087-.448.821-1.202 1.388-2.3 1.388-.267 0-.496 0-.762-.076.38-1.295.533-2.704.533-4.113 0-3.694-1.447-6.397-3.237-6.397-2.056 0-3.085 2.056-3.085 4.455 0 2.742.952 5.255 2.742 6.778-.495.876-1.18 1.447-2.247 1.447-1.485 0-2.741-1.599-2.741-4.798 0-3.77 1.142-5.179 1.752-6.093.99-.646.228-2.665-.762-2.665-.838 0-3.884 3.39-3.884 8.987 0 .532.037 1.05.105 1.554-.562 1.475-1.67 3.015-3.075 3.015-1.408 0-2.018-1.104-2.018-2.627v-2.209c.495-.457 3.96-8.148 3.96-13.747 0-2.132-.038-6.13-3.389-6.13-1.904 0-3.465 2.018-3.465 4.874v17.326c0 3.008 1.561 5.027 4.494 5.027 1.945 0 3.386-1.213 4.398-2.64.887 1.595 2.378 2.64 4.55 2.64 2.17 0 3.617-1.105 4.569-2.742.571.19 1.18.266 1.866.266 1.06 0 1.946-.29 2.656-.771.831 1.93 2.409 3.247 4.845 3.247 2.17 0 3.618-1.105 4.57-2.742.57.19 1.18.266 1.866.266.953 0 1.765-.233 2.436-.629v1.43c0 1.408 1.066 1.675 1.828 1.675 1.104 0 1.066-.914 1.066-1.638v-5.56c.267-3.008 2.628-6.283 3.732-6.283.724 0 .8.99.8 2.171v7.73c0 1.942 1.18 3.58 3.199 3.58 1.53 0 2.675-.753 3.53-1.808.76 1.117 1.924 1.808 3.476 1.808 1.447 0 2.513-.686 3.274-1.562.571.914 1.6 1.562 2.932 1.562 3.275 0 4.798-3.428 5.446-5.94.038-.153.038-.23.038-.267 0-.724-.723-1.562-1.333-1.562z" fill="#322e63"/><path d="m1.851.144c-.99 0-1.828.8-1.828 1.828 0 .952.838 1.79 1.828 1.79 1.028 0 1.866-.838 1.866-1.79 0-1.028-.838-1.828-1.866-1.828" fill="#322e63" mask="url(#a)" transform="translate(105.192 29.051)"/><path d="m16.406 4.793c-7.724 0-14.01 6.285-14.01 14.01s6.286 14.01 14.01 14.01c7.725 0 14.01-6.285 14.01-14.01s-6.285-14.01-14.01-14.01" fill="#d5e6fc"/><path d="m2.396 18.803c0 2.171.497 4.23 1.383 6.066a13.21 13.21 0 0 0 8.572 3.15c7.318 0 13.272-5.953 13.272-13.272 0-3.265-1.188-6.257-3.15-8.572a13.926 13.926 0 0 0 -6.067-1.382c-7.725 0-14.01 6.285-14.01 14.01" fill="#ebf3ff"/><path d="m2.452 15.94a7.369 7.369 0 0 0 6.212 3.418c4.066 0 7.374-3.308 7.374-7.374 0-3.632-2.643-6.652-6.106-7.256-4.136 2.166-7.062 6.335-7.48 11.213" fill="#fff"/><g fill="#322e63"><path d="m16.406 4.793c-7.724 0-14.01 6.285-14.01 14.01s6.286 14.01 14.01 14.01c7.725 0 14.01-6.285 14.01-14.01s-6.285-14.01-14.01-14.01m0 29.494c-8.538 0-15.484-6.946-15.484-15.484 0-8.539 6.946-15.485 15.484-15.485s15.485 6.946 15.485 15.485c0 8.538-6.947 15.484-15.485 15.484"/><path d="m10.139 21.106a1.106 1.106 0 1 1 -2.213 0 1.106 1.106 0 0 1 2.213 0m-7.927-14.654a1.106 1.106 0 1 1 -2.212 0 1.106 1.106 0 0 1 2.212 0m8.295 18.065a.923.923 0 0 0 0 1.844.923.923 0 0 0 .922-.922.923.923 0 0 0 -.922-.922m0 2.95a2.03 2.03 0 0 1 -2.027-2.028 2.03 2.03 0 0 1 2.027-2.028 2.03 2.03 0 0 1 2.028 2.028 2.03 2.03 0 0 1 -2.028 2.027m-5.161-25.991a.738.738 0 0 0 0 1.474.738.738 0 0 0 0-1.474m0 2.95a2.214 2.214 0 0 1 -2.212-2.213c0-1.22.992-2.212 2.212-2.212s2.212.992 2.212 2.212-.992 2.212-2.212 2.212m17.144 8.111a2.4 2.4 0 0 0 -2.397 2.397 2.4 2.4 0 0 0 2.396 2.396 2.4 2.4 0 0 0 2.397-2.396 2.4 2.4 0 0 0 -2.397-2.397m0 6.267a3.875 3.875 0 0 1 -3.87-3.87 3.876 3.876 0 0 1 3.87-3.872 3.876 3.876 0 0 1 3.872 3.872 3.875 3.875 0 0 1 -3.872 3.87m4.609 5.9a3.322 3.322 0 0 0 -3.318 3.318 3.322 3.322 0 0 0 3.318 3.318 3.322 3.322 0 0 0 3.318-3.318 3.322 3.322 0 0 0 -3.318-3.318m0 8.11a4.799 4.799 0 0 1 -4.793-4.792 4.798 4.798 0 0 1 4.793-4.793 4.798 4.798 0 0 1 4.793 4.793 4.799 4.799 0 0 1 -4.793 4.793m-11.245-7.927a1.106 1.106 0 1 1 -2.212 0 1.106 1.106 0 0 1 2.212 0m1.844-11.798a1.106 1.106 0 1 1 -2.213 0 1.106 1.106 0 0 1 2.213 0"/><path d="m20.83 10.876a.923.923 0 1 0 .922.922.923.923 0 0 0 -.921-.922m0 2.95a2.03 2.03 0 0 1 -2.028-2.028 2.03 2.03 0 0 1 2.027-2.028 2.03 2.03 0 0 1 2.027 2.028 2.03 2.03 0 0 1 -2.027 2.028"/></g><path d="m10.507 24.517a.923.923 0 0 0 0 1.844.923.923 0 0 0 .922-.922.923.923 0 0 0 -.922-.922" fill="#b9d5ea"/><path d="m27.098 24.702a3.322 3.322 0 0 0 -3.318 3.318 3.322 3.322 0 0 0 3.318 3.318 3.322 3.322 0 0 0 3.318-3.318 3.322 3.322 0 0 0 -3.318-3.318" fill="#28b1d5"/><path d="m20.83 10.876a.923.923 0 1 0 .922.922.923.923 0 0 0 -.921-.922" fill="#fff"/><path d="m5.346.991c-.674 0-1.22.548-1.22 1.22 0 .674.546 1.222 1.22 1.222a1.222 1.222 0 0 0 0-2.442" fill="#ffdc7b"/><path d="m27.098 24.702a3.322 3.322 0 0 0 -3.318 3.318 3.322 3.322 0 0 0 3.318 3.318 3.322 3.322 0 0 0 3.318-3.318 3.322 3.322 0 0 0 -3.318-3.318" fill="#2992d3"/><path d="m23.78 28.02c0 .749.253 1.438.673 1.995.364.138.758.217 1.17.217a3.322 3.322 0 0 0 3.318-3.318c0-.75-.252-1.44-.673-1.995a3.298 3.298 0 0 0 -1.17-.217 3.322 3.322 0 0 0 -3.318 3.318" fill="#35cbd7"/></g></svg>