<svg xmlns="http://www.w3.org/2000/svg" width="30" height="30" viewBox="0 0 30 30">
    <g fill="#322E63" fill-rule="nonzero">
        <path d="M21.846 11.47c2.288.787 3.766 2.02 3.766 3.296 0 1.33-1.58 2.632-4.008 3.436-.128.043-.26.084-.394.123.048.193.09.381.127.566.48 2.422.11 4.412-1.026 5.07-1.1.637-2.878.012-4.679-1.538a13.907 13.907 0 0 1-.572-.522 12 12 0 0 1-.442.407c-1.859 1.625-3.768 2.299-4.905 1.643-1.101-.635-1.447-2.488-1.004-4.821.048-.254.104-.506.166-.756a12.041 12.041 0 0 1-.572-.18c-2.336-.798-3.874-2.115-3.874-3.428 0-1.27 1.432-2.496 3.675-3.278.25-.087.513-.17.784-.247-.058-.232-.11-.466-.157-.701-.464-2.375-.137-4.273.967-4.912 1.151-.666 3.069.05 4.982 1.748.119.106.236.214.35.324.172-.166.348-.327.528-.484 1.825-1.588 3.633-2.253 4.738-1.615 1.152.664 1.49 2.683.974 5.188-.033.156-.068.311-.106.466.23.065.457.137.682.214zm-.527 5.873c2.097-.695 3.389-1.758 3.389-2.577 0-.768-1.196-1.766-3.156-2.44-.203-.07-.414-.137-.63-.2a21.23 21.23 0 0 1-1.031 2.645 21.24 21.24 0 0 1 1.073 2.684c.12-.036.24-.073.355-.112zm-.87 1.724a11.19 11.19 0 0 0-.114-.512c-.878.203-1.845.351-2.87.442a21.266 21.266 0 0 1-1.775 2.255c.178.171.356.333.533.485 1.54 1.325 2.967 1.828 3.635 1.441.313-.182.567-.635.693-1.315.14-.757.11-1.725-.102-2.796zm-8.798 4.044c.726-.256 1.55-.766 2.371-1.484.138-.12.272-.245.404-.372a22.02 22.02 0 0 1-1.819-2.246 21.28 21.28 0 0 1-2.854-.414c-.058.233-.11.468-.155.704-.379 1.995-.101 3.483.567 3.868.314.181.834.175 1.486-.056zm-3.056-5.773c.173.059.348.114.523.164.268-.872.62-1.788 1.046-2.714a21.703 21.703 0 0 1-1.033-2.675c-.245.07-.488.146-.729.23-1.918.668-3.068 1.652-3.068 2.423 0 .363.265.81.79 1.26.585.5 1.438.96 2.471 1.312zm1.025-6.972c.043.219.091.436.145.653.877-.2 1.83-.347 2.827-.44.58-.82 1.19-1.572 1.804-2.233a11.83 11.83 0 0 0-.317-.293C12.427 6.586 10.859 6 10.15 6.41c-.665.386-.93 1.92-.531 3.955zm9.137 2.256c.21.364.414.731.61 1.103.267-.628.495-1.24.678-1.825a19.897 19.897 0 0 0-1.932-.337c.222.348.437.702.644 1.06zm-3.726-3.63c-.424.458-.846.962-1.257 1.505.834-.039 1.67-.039 2.503 0a19.353 19.353 0 0 0-1.246-1.504zm-3.75 3.636c.208-.36.424-.716.65-1.067-.672.084-1.317.195-1.921.33.184.593.41 1.208.673 1.833.19-.37.39-.735.598-1.096zm.668 5.408a26.744 26.744 0 0 1-1.265-2.184c-.27.639-.5 1.266-.687 1.87.604.132 1.259.237 1.952.314zm3.107 2.568c.414-.457.831-.97 1.243-1.53-.42.019-.846.029-1.278.029-.42 0-.834-.008-1.24-.024.418.55.846 1.062 1.275 1.525zm4.32-4.784a31.644 31.644 0 0 1-1.265 2.2 19.205 19.205 0 0 0 1.976-.337 19.219 19.219 0 0 0-.712-1.863zm-1.4.67c.325-.56.628-1.132.911-1.715a29.664 29.664 0 0 0-.913-1.7 27.253 27.253 0 0 0-1.02-1.629 25.473 25.473 0 0 0-3.862 0 25.675 25.675 0 0 0-1.928 3.343 25.438 25.438 0 0 0 1.939 3.348c.617.04 1.259.06 1.918.06.662 0 1.311-.022 1.94-.067a29.67 29.67 0 0 0 1.016-1.64zm1.868-10.105c-.666-.385-2.128.153-3.692 1.514-.166.145-.328.294-.487.447a21.258 21.258 0 0 1 1.79 2.234c1 .094 1.954.245 2.833.448.034-.14.066-.28.095-.421.446-2.164.17-3.813-.54-4.222z"/>
        <path d="M15.02 12.875a1.892 1.892 0 1 1 0 3.783 1.892 1.892 0 0 1 0-3.783"/>
    </g>
</svg>
