<svg xmlns="http://www.w3.org/2000/svg" width="80" height="80" viewBox="0 0 80 80">
    <g fill="none" fill-rule="nonzero">
        <circle cx="5.003" cy="5.373" r="4.98" fill="#FFF" transform="translate(29.563 50.75)"/>
        <path fill="#66D4F1" d="M8.587 76.875h-.025a1.562 1.562 0 1 0 0 3.125h.025a1.562 1.562 0 1 0 0-3.125z"/>
        <path fill="#322E63" d="M68.284 50.153c-6.439-6.439-14.686-10.41-23.597-11.443V21.25h22.429a1.562 1.562 0 0 0 1.102-2.67l-6.428-6.392 6.428-6.393a1.563 1.563 0 0 0-1.102-2.67H44.419A4.695 4.695 0 0 0 40 0a4.693 4.693 0 0 0-4.688 4.688v11.015a1.562 1.562 0 1 0 3.126 0V4.688c0-.862.7-1.563 1.562-1.563.862 0 1.563.7 1.563 1.563V38.47A40.9 40.9 0 0 0 40 38.438a40.9 40.9 0 0 0-1.563.032v-9.642a1.562 1.562 0 1 0-3.124 0v9.882c-8.91 1.033-17.158 5.004-23.597 11.443C4.16 57.708 0 67.753 0 78.438a1.562 1.562 0 1 0 3.125 0c0-7.015 1.97-13.578 5.383-19.167l.054.003c4.852 0 8.8 3.948 8.8 8.8a8.789 8.789 0 0 1-3.125 6.727 1.563 1.563 0 0 0 2.016 2.387 11.908 11.908 0 0 0 4.234-9.114c0-5.909-4.32-10.825-9.968-11.762 6.734-8.95 17.443-14.75 29.481-14.75a36.657 36.657 0 0 1 19.927 5.861c-4.763.69-8.433 4.799-8.433 9.75 0 5.432 4.42 9.852 9.853 9.852 4.937 0 9.037-3.65 9.744-8.395a36.659 36.659 0 0 1 5.784 19.807 1.562 1.562 0 1 0 3.125 0c0-10.684-4.16-20.729-11.716-28.284zM58.472 11.08a1.562 1.562 0 0 0 0 2.215l4.857 4.83H44.687V6.25H63.33l-4.857 4.83zm2.875 52.82a6.736 6.736 0 0 1-6.728-6.727 6.736 6.736 0 0 1 6.728-6.728 6.736 6.736 0 0 1 6.728 6.727 6.736 6.736 0 0 1-6.728 6.728z"/>
        <path fill="#66D4F1" d="M41.108 56.123a6.55 6.55 0 0 0-6.542-6.542 6.55 6.55 0 0 0-6.542 6.542 6.55 6.55 0 0 0 6.542 6.542 6.55 6.55 0 0 0 6.542-6.542zm-6.542 3.417a3.421 3.421 0 0 1-3.417-3.417 3.421 3.421 0 0 1 3.417-3.417 3.421 3.421 0 0 1 3.417 3.417 3.421 3.421 0 0 1-3.417 3.417z"/>
        <path fill="#322E63" d="M45.484 65.907a7.055 7.055 0 0 0-7.047 7.046A7.055 7.055 0 0 0 45.484 80a7.055 7.055 0 0 0 7.047-7.047 7.055 7.055 0 0 0-7.047-7.046zm0 10.968a3.926 3.926 0 0 1-3.922-3.922 3.926 3.926 0 0 1 3.922-3.921 3.926 3.926 0 0 1 3.922 3.921 3.926 3.926 0 0 1-3.922 3.922z"/>
        <path fill="#66D4F1" d="M36.875 24.219c.41 0 .814-.167 1.105-.458.29-.29.458-.694.458-1.105 0-.41-.168-.814-.458-1.104a1.574 1.574 0 0 0-1.105-.458c-.41 0-.814.167-1.105.458-.29.29-.458.693-.458 1.104 0 .411.168.814.458 1.105.29.29.694.458 1.105.458z"/>
    </g>
</svg>
