<svg xmlns="http://www.w3.org/2000/svg" width="80" height="80" viewBox="0 0 80 80">
    <g fill="none" fill-rule="nonzero">
        <path fill="#322E63" d="M52.867 33.3h2.303l-3.676-9.538H48.95L45.273 33.3h2.303l.6-1.616h3.473l-.628-1.788h-2.287l1.487-4.105z"/>
        <path fill="#322E63" d="M57.51 19.918a2.333 2.333 0 1 1-2.33 2.232 8.577 8.577 0 0 0-4.998-1.618c-4.719 0-8.559 3.84-8.559 8.559 0 4.718 3.84 8.558 8.559 8.558 4.718 0 8.558-3.84 8.558-8.558 0-.774-.104-1.544-.311-2.289a1.554 1.554 0 0 1 2.995-.831c.282 1.015.424 2.065.424 3.12 0 6.434-5.232 11.666-11.666 11.666s-11.667-5.232-11.667-11.666 5.233-11.667 11.667-11.667c2.61 0 5.154.888 7.204 2.498.042-.003.083-.004.124-.004z"/>
        <path fill="#322E63" d="M66.552 38.213a48.68 48.68 0 0 0 13.2-36.434 1.56 1.56 0 0 0-.45-1.208l-.016-.015a1.556 1.556 0 0 0-1.214-.455 48.673 48.673 0 0 0-36.433 13.198l-2.228-.457a36.404 36.404 0 0 0-33.149 9.946 1.56 1.56 0 0 0 0 2.205l13.81 13.809-3.419 3.418a1.56 1.56 0 0 0 0 2.205l3.906 3.905c-.083-.001-.165-.006-.248-.006a11.157 11.157 0 0 0-8.158 3.513c-3.672 3.818-5.006 9.057-5.48 12.779a34.234 34.234 0 0 0-.26 5.112c.065 2.55.274 2.759.62 3.105.361.36.542.541 3.089.602a35.044 35.044 0 0 0 5.11-.26c3.732-.467 8.982-1.796 12.786-5.452a11.197 11.197 0 0 0 3.512-8.422l3.911 3.911a1.56 1.56 0 0 0 2.205 0l3.418-3.417L54.859 73.59a1.559 1.559 0 0 0 2.205 0 36.405 36.405 0 0 0 9.946-33.15l-.458-2.227zM76.697 3.155a45.54 45.54 0 0 1-2.765 17.335l-9.865-9.865a1.56 1.56 0 0 0-2.205 2.205l10.79 10.79a45.54 45.54 0 0 1-9.27 13.383l-20.35 20.35-.864-.864L22.5 36.82l4.287-4.287 7.372 7.371a1.555 1.555 0 0 0 2.205 0 1.56 1.56 0 0 0 0-2.205l-7.371-7.371L42.849 16.47A45.557 45.557 0 0 1 76.697 3.155zM38.784 15.897l.19.039-18.68 18.679-10.699-10.7a33.285 33.285 0 0 1 29.19-8.018zM27.007 56.135a3.255 3.255 0 0 1-1.04 2.394c-1.895 1.822-5.047 2.204-6.856 2.219.015-1.765.383-4.934 2.234-6.86l.068-.07a3.255 3.255 0 0 1 2.317-.96c.875 0 1.697.341 2.316.959l.001.001.002.002c.618.619.958 1.44.958 2.315zm-.96 9.156a8.541 8.541 0 0 1-.18.175c-3.091 2.97-7.462 4.118-10.584 4.558-2.403.338-4.5.332-5.73.273a30.618 30.618 0 0 1 .28-5.776c.446-3.098 1.601-7.438 4.575-10.531l.166-.172a8.049 8.049 0 0 1 4.749-2.314c-.038.036-.077.071-.114.108a6.178 6.178 0 0 0-.12.124c-1.57 1.633-2.59 3.995-2.951 6.831a17.926 17.926 0 0 0-.137 2.675c.032 1.21.11 1.655.54 2.086.45.447.926.5 2.075.527a18.33 18.33 0 0 0 2.67-.135c2.845-.358 5.211-1.375 6.834-2.935.044-.041.087-.083.13-.126l.002-.002c.036-.035.07-.073.104-.11a8.066 8.066 0 0 1-2.309 4.744zm10.497-5.386l-8.29-8.29-.002-.002-8.291-8.291 2.315-2.315 8.264 8.263.013.014 8.306 8.306-2.315 2.315zm19.392 10.352l-10.7-10.7 18.68-18.679.039.19a33.286 33.286 0 0 1-8.019 29.189z"/>
        <path fill="#66D4F1" d="M10.592 46.522a1.56 1.56 0 0 1 0 2.205l-7.93 7.93a1.555 1.555 0 0 1-1.103.457 1.56 1.56 0 0 1-1.103-2.662l7.932-7.93a1.56 1.56 0 0 1 2.204 0zm17.744 25.526a1.56 1.56 0 0 1 2.205 2.205l-5.127 5.127a1.555 1.555 0 0 1-1.102.457 1.56 1.56 0 0 1-1.103-2.662l5.127-5.127zm5.463-4.817a1.562 1.562 0 0 1 1.56 1.559c0 .41-.166.81-.457 1.102a1.57 1.57 0 0 1-1.103.455 1.57 1.57 0 0 1-1.102-.455 1.574 1.574 0 0 1-.457-1.102c0-.412.167-.813.457-1.103.29-.291.692-.456 1.102-.456z"/>
    </g>
</svg>
