<svg xmlns="http://www.w3.org/2000/svg" width="81" height="81" viewBox="0 0 81 81">
    <g fill="none" fill-rule="nonzero">
        <path fill="#322E63" d="M38.935 64.107c13.88 0 25.172-11.292 25.172-25.172 0-2.22-.29-4.375-.833-6.428 1.913-2.722 3.573-5.38 4.932-7.914 4.414-8.23 5.152-14.174 2.135-17.192-1.657-1.657-5.164-3.019-12.465-.097a1.573 1.573 0 0 0 1.168 2.92c4.39-1.756 7.697-1.974 9.072-.599 1.826 1.826.799 6.992-2.682 13.481a70.762 70.762 0 0 1-3.45 5.718c-3.9-8.86-12.763-15.06-23.049-15.06-13.88 0-25.172 11.291-25.172 25.171 0 10.27 6.182 19.12 15.02 23.031-2.354 1.56-4.63 2.898-6.78 3.978a7.623 7.623 0 0 0-6.404-3.495 7.628 7.628 0 0 0-6.639 3.882c-.48-2.545.808-6.932 3.658-12.162a1.573 1.573 0 1 0-2.762-1.505C5.269 61.079 4.466 67.147 7.53 70.21c.137.137.293.242.46.318.235 3.993 3.557 7.17 7.609 7.17 4.204 0 7.624-3.42 7.624-7.625 0-.4-.031-.793-.09-1.176 2.925-1.45 6.074-3.359 9.327-5.637 2.067.551 4.237.846 6.475.846zM15.6 74.553a4.484 4.484 0 0 1-4.479-4.48 4.484 4.484 0 0 1 4.479-4.478 4.484 4.484 0 0 1 4.478 4.479 4.484 4.484 0 0 1-4.478 4.479zM60.96 38.935c0 12.145-9.88 22.026-22.026 22.026-1.032 0-2.048-.073-3.042-.211 4.412-3.365 8.937-7.33 13.297-11.69 4.317-4.316 8.232-8.77 11.566-13.125.134.982.205 1.983.205 3zm-44.052 0c0-12.145 9.881-22.026 22.026-22.026 9.698 0 17.952 6.3 20.885 15.024-3.555 4.893-7.933 9.982-12.855 14.903-4.964 4.964-10.13 9.396-15.07 12.972C23.192 56.864 16.91 48.62 16.91 38.935z"/>
        <path fill="#66D4F1" d="M52.976 12.996c.26 0 .523-.064.766-.2l.03-.017.027-.014a1.573 1.573 0 1 0-1.57-2.727l-.02.012a1.573 1.573 0 0 0 .767 2.946z"/>
        <path fill="#322E63" d="M67.637 54.74c-7.112 0-12.898 5.785-12.898 12.897 0 7.113 5.786 12.899 12.898 12.899 7.113 0 12.899-5.786 12.899-12.899 0-7.112-5.786-12.898-12.899-12.898zm0 22.65c-5.377 0-9.752-4.375-9.752-9.753 0-5.377 4.375-9.752 9.752-9.752 5.378 0 9.753 4.375 9.753 9.752 0 5.378-4.375 9.753-9.753 9.753zM68.896 36.02c0 3.21 2.61 5.82 5.82 5.82 3.209 0 5.82-2.61 5.82-5.82 0-3.208-2.611-5.82-5.82-5.82-3.21 0-5.82 2.612-5.82 5.82zm5.82-2.673c1.474 0 2.674 1.2 2.674 2.674s-1.2 2.674-2.674 2.674a2.677 2.677 0 0 1-2.674-2.674c0-1.475 1.2-2.674 2.674-2.674zM19.505 9.752C19.505 4.375 15.13 0 9.752 0 4.375 0 0 4.375 0 9.752c0 5.378 4.375 9.753 9.752 9.753 5.378 0 9.753-4.375 9.753-9.753zm-16.36 0a6.614 6.614 0 0 1 6.607-6.606 6.614 6.614 0 0 1 6.607 6.606 6.614 6.614 0 0 1-6.607 6.607 6.614 6.614 0 0 1-6.606-6.607z"/>
        <path fill="#66D4F1" d="M38.935 21.297h-.031a1.573 1.573 0 0 0 0 3.146h.031a1.573 1.573 0 0 0 0-3.146zM31.941 22.74a17.634 17.634 0 0 0-10.644 16.195 1.573 1.573 0 0 0 3.146 0 14.49 14.49 0 0 1 8.747-13.308 1.573 1.573 0 1 0-1.249-2.888z"/>
    </g>
</svg>
