<svg xmlns="http://www.w3.org/2000/svg" xmlns:xlink="http://www.w3.org/1999/xlink" version="1.1" id="Capa_1" x="0px" y="0px"
  viewBox="0 0 511.998 511.998" xml:space="preserve" width="81px" height="81px">
  <path d="M296.152,95.026c-1.87-1.86-4.439-2.92-7.069-2.92c-2.641,0-5.21,1.06-7.08,2.92c-1.86,1.87-2.92,4.45-2.92,7.08    s1.06,5.2,2.92,7.07c1.87,1.86,4.45,2.93,7.08,2.93c2.62,0,5.199-1.07,7.069-2.93c1.86-1.87,2.931-4.44,2.931-7.07    S298.013,96.896,296.152,95.026z"
    fill="#66d4f1" />
  <path d="M336.422,135.306c-1.86-1.86-4.44-2.93-7.07-2.93s-5.21,1.07-7.07,2.93c-1.859,1.86-2.93,4.44-2.93,7.07    s1.07,5.21,2.93,7.07c1.86,1.86,4.44,2.93,7.07,2.93s5.21-1.07,7.07-2.93c1.859-1.86,2.93-4.44,2.93-7.07    S338.282,137.166,336.422,135.306z"
    fill="#66d4f1" />
  <path d="M376.692,175.576c-1.859-1.86-4.439-2.93-7.069-2.93s-5.21,1.07-7.07,2.93c-1.86,1.86-2.93,4.44-2.93,7.07    s1.069,5.21,2.93,7.07c1.86,1.87,4.44,2.93,7.07,2.93s5.21-1.06,7.069-2.93c1.86-1.86,2.931-4.44,2.931-7.07    S378.553,177.436,376.692,175.576z"
    fill="#66d4f1" />
  <path d="M416.962,215.846c-1.86-1.86-4.43-2.92-7.07-2.92c-2.63,0-5.21,1.06-7.07,2.92c-1.859,1.86-2.93,4.44-2.93,7.07    c0,2.64,1.07,5.22,2.93,7.08c1.86,1.86,4.44,2.92,7.07,2.92c2.64,0,5.21-1.06,7.07-2.92c1.87-1.87,2.939-4.44,2.939-7.08    C419.901,220.286,418.832,217.716,416.962,215.846z"
    fill="#66d4f1" />
  <path d="M478.509,230.335c21.767-25.389,33.594-57.396,33.488-91.168c-0.116-37.124-14.638-72.025-40.889-98.277    c-26.252-26.251-61.154-40.773-98.277-40.889c-33.727-0.096-65.771,11.723-91.167,33.49l-5.247-5.247    c-3.887-3.886-10.181-3.907-14.093-0.049l-0.201,0.195c-0.167,0.161-0.333,0.322-0.497,0.487    c-17.604,17.606-30.193,39.598-36.408,63.596c-0.888,3.429,0.104,7.073,2.609,9.578l8.087,8.087    c-2.744,12.729-3.686,25.64-2.881,38.383l-10.036,2.69c-7.358,1.971-13.508,6.689-17.316,13.287    c-2.073,3.591-3.311,7.506-3.696,11.514L7.415,228.146c-5.335,1.429-8.501,6.913-7.071,12.248    c1.197,4.468,5.237,7.414,9.653,7.414c0.856,0,1.728-0.111,2.594-0.343l194.598-52.142c5.315,7.423,13.97,11.954,23.197,11.954    c2.436,0,4.911-0.315,7.374-0.975l10.444-2.799c2.057,3.992,4.314,7.899,6.771,11.705l-7.654,7.654    c-8.632,8.632-10.559,21.464-5.789,31.976L68.899,427.469c-3.905,3.905-3.905,10.237,0,14.142    c1.953,1.953,4.512,2.929,7.071,2.929c2.559,0,5.119-0.977,7.071-2.929L255.675,268.98c3.741,1.698,7.775,2.551,11.81,2.551    c7.303,0,14.605-2.78,20.165-8.339l7.343-7.343c4.374,2.921,8.882,5.573,13.501,7.958l-2.795,10.432    c-1.972,7.358-0.96,15.043,2.849,21.64c2.073,3.591,4.845,6.621,8.123,8.958l-52.135,194.57    c-1.43,5.335,1.736,10.818,7.071,12.248c0.867,0.232,1.737,0.343,2.594,0.343c4.415,0,8.456-2.947,9.653-7.414l52.141-194.592    c11.485-1.127,21.635-9.202,24.794-20.99l2.685-10.021c2.891,0.181,5.788,0.297,8.694,0.297c9.884,0,19.833-1.065,29.693-3.195    l7.73,7.73c1.899,1.899,4.453,2.929,7.071,2.929c0.836,0,1.678-0.104,2.507-0.319c24.002-6.215,45.996-18.808,63.612-36.424    c0.152-0.152,0.301-0.306,0.45-0.46l0.207-0.213c3.867-3.912,3.849-10.212-0.04-14.102L478.509,230.335z M232.583,186.983    c-4.539,1.213-9.216-1.487-10.432-6.023c-0.589-2.197-0.287-4.492,0.851-6.462c1.138-1.97,2.974-3.379,5.173-3.968l7.582-2.032    c1.171,5.556,2.681,11.04,4.526,16.422L232.583,186.983z M297.313,225.242l-23.807,23.807c-3.32,3.32-8.723,3.321-12.043,0    c-3.321-3.321-3.321-8.724,0-12.045l23.807-23.807c1.66-1.661,3.841-2.491,6.022-2.491c2.181,0,4.361,0.83,6.021,2.491    C300.634,216.518,300.634,221.921,297.313,225.242z M341.47,283.825c-1.216,4.537-5.896,7.236-10.432,6.023    c-2.197-0.589-4.034-1.999-5.172-3.969c-1.138-1.97-1.439-4.265-0.851-6.463l2.06-7.686c5.382,1.849,10.863,3.366,16.419,4.538    L341.47,283.825z M309.46,241.381l1.996-1.996c5.386-5.386,8.353-12.548,8.353-20.165c0-7.617-2.967-14.779-8.353-20.165    c-5.387-5.386-12.548-8.353-20.165-8.353c-7.616,0-14.777,2.967-20.164,8.353l-1.633,1.633    c-13.11-22.041-18.711-47.664-16.131-73.104l131.063,131.063C358.209,261.333,331.934,255.329,309.46,241.381z M419.581,265.519    L246.124,92.062c4.828-15.55,12.824-29.981,23.46-42.368l4.704,4.704c0.003,0.003,183.308,183.308,183.31,183.31l4.352,4.352    C449.562,252.694,435.131,260.69,419.581,265.519z M295.857,47.683c46.915-39.081,117.184-36.576,161.11,7.349    c43.924,43.924,46.431,114.194,7.35,161.109L295.857,47.683z"
    fill="#322e63" />
  <path d="M450.821,61.67l-0.245-0.247c-3.906-3.905-10.236-3.905-14.143,0c-3.905,3.905-3.905,10.237,0,14.143l0.2,0.2    c1.954,1.968,4.523,2.952,7.094,2.952c2.548,0,5.098-0.968,7.048-2.906C454.693,71.919,454.713,65.588,450.821,61.67z"
    fill="#322e63" />
  <path d="M475.416,99.391c-2.006-5.144-7.804-7.692-12.949-5.685c-5.146,2.006-7.691,7.803-5.686,12.949    c7.496,19.228,8.191,40.667,1.958,60.368c-1.666,5.266,1.252,10.885,6.518,12.551c1.004,0.318,2.02,0.469,3.02,0.469    c4.244,0,8.183-2.724,9.531-6.986C485.413,149.019,484.564,122.857,475.416,99.391z"
    fill="#66d4f1" />
  <path d="M57.612,452.896c-1.859-1.86-4.439-2.93-7.069-2.93c-2.63,0-5.21,1.07-7.07,2.93c-1.86,1.86-2.93,4.44-2.93,7.07    s1.069,5.21,2.93,7.07c1.86,1.86,4.44,2.93,7.07,2.93c2.63,0,5.21-1.07,7.069-2.93c1.87-1.86,2.931-4.44,2.931-7.07    S59.482,454.756,57.612,452.896z"
    fill="#322e63" />
</svg>